<svg id="Vector" xmlns="http://www.w3.org/2000/svg" width="1000" height="237" viewBox="0 0 1000 237">
  <metadata><?xpacket begin="﻿" id="W5M0MpCehiHzreSzNTczkc9d"?>
<x:xmpmeta xmlns:x="adobe:ns:meta/" x:xmptk="Adobe XMP Core 5.6-c140 79.160451, 2017/05/06-01:08:21        ">
   <rdf:RDF xmlns:rdf="http://www.w3.org/1999/02/22-rdf-syntax-ns#">
      <rdf:Description rdf:about=""/>
   </rdf:RDF>
</x:xmpmeta>
                                                                                                    
                                                                                                    
                                                                                                    
                                                                                                    
                                                                                                    
                                                                                                    
                                                                                                    
                                                                                                    
                                                                                                    
                                                                                                    
                                                                                                    
                                                                                                    
                                                                                                    
                                                                                                    
                                                                                                    
                                                                                                    
                                                                                                    
                                                                                                    
                                                                                                    
                                                                                                    
                           
<?xpacket end="w"?></metadata>
<defs>
    <style>
      .cls-1, .cls-3 {
        fill-rule: evenodd;
      }

      .cls-1 {
        opacity: 0.9;
      }

      .cls-2, .cls-3 {
        fill: #fff;
      }
    </style>
  </defs>
  <path class="cls-1" d="M246-1h754V237H246V-1Zm754,90.709s-34.508,0-34.508,28.291S1000,146.291,1000,146.291"/>
  <path class="cls-1" d="M0-1H246V237H0V-1ZM0,89.719s34.531,0,34.531,28.281S0,146.281,0,146.281"/>
  <rect class="cls-2" x="237" y="25" width="9" height="186"/>
  <path id="Pencil" class="cls-3" d="M83.915,142.839l49.968-50.178,15.569,15.689-50.037,50Zm53.468-52.978,15.4,15.4,12.131-12.426s3.521-3.069-.91-7.28-7.721-6.894-7.721-6.894-3.173-3.693-5.929-1.3S137.383,89.861,137.383,89.861Zm-60.9,72.1h0Zm4.2-16.1,15.4,16.1s-14.133,5.548-17.817,5.845-5.326-1.086-5.283-4.445C73.04,158.822,80.683,145.861,80.683,145.861Zm19.6,23.8,77.7-70.2"/>
</svg>
