<svg id="Vector" xmlns="http://www.w3.org/2000/svg" width="1000" height="238" viewBox="0 0 1000 238">
  <metadata><?xpacket begin="﻿" id="W5M0MpCehiHzreSzNTczkc9d"?>
<x:xmpmeta xmlns:x="adobe:ns:meta/" x:xmptk="Adobe XMP Core 5.6-c140 79.160451, 2017/05/06-01:08:21        ">
   <rdf:RDF xmlns:rdf="http://www.w3.org/1999/02/22-rdf-syntax-ns#">
      <rdf:Description rdf:about=""/>
   </rdf:RDF>
</x:xmpmeta>
                                                                                                    
                                                                                                    
                                                                                                    
                                                                                                    
                                                                                                    
                                                                                                    
                                                                                                    
                                                                                                    
                                                                                                    
                                                                                                    
                                                                                                    
                                                                                                    
                                                                                                    
                                                                                                    
                                                                                                    
                                                                                                    
                                                                                                    
                                                                                                    
                                                                                                    
                                                                                                    
                           
<?xpacket end="w"?></metadata>
<defs>
    <style>
      .cls-1, .cls-3 {
        fill: #fff;
      }

      .cls-1, .cls-2, .cls-3 {
        fill-rule: evenodd;
      }

      .cls-1, .cls-2 {
        opacity: 0.9;
      }

      .cls-2 {
        fill: #ffccd2;
      }
    </style>
  </defs>
  <path class="cls-1" d="M246,0h754V238H246V0Zm754,90.709s-34.508,0-34.508,28.291S1000,147.291,1000,147.291"/>
  <path class="cls-2" d="M0,0H246V238H0V0ZM0,90.719s34.531,0,34.531,28.281S0,147.281,0,147.281"/>
  <path id="Pencil" class="cls-3" d="M84.9,144.072L134.735,94.05l15.527,15.64-49.9,49.845Zm53.322-52.813,15.358,15.352,12.1-12.388s3.512-3.059-.907-7.257-7.7-6.872-7.7-6.872-3.164-3.682-5.913-1.292S138.225,91.259,138.225,91.259ZM77.491,163.134h0Zm4.189-16.05,15.358,16.05s-14.095,5.53-17.768,5.827S73.958,167.878,74,164.53C74.058,160.005,81.679,147.084,81.679,147.084Zm19.547,23.726,77.489-69.978"/>
</svg>
